<svg width="120" height="120" viewBox="0 0 120 120" fill="none" xmlns="http://www.w3.org/2000/svg">
<rect width="120" height="120" rx="60" fill="#ECEDFE"/>
<g clip-path="url(#clip0_3907_31074)">
<rect x="37.0833" y="38.9165" width="46.75" height="33.9167" fill="white"/>
<path d="M37.1857 76.23H82.8164C85.5186 76.23 87.7153 74.0321 87.7153 71.33V40.3649C87.7153 37.6629 85.5186 35.4648 82.8164 35.4648H37.1857C34.4837 35.4648 32.2869 37.6628 32.2869 40.3649V71.33C32.2869 74.0321 34.4837 76.23 37.1857 76.23ZM36.8265 40.3649C36.8265 40.1665 36.9884 40.0046 37.1857 40.0046H82.8164C83.0137 40.0046 83.1755 40.1665 83.1755 40.3649V71.33C83.1755 71.5284 83.0136 71.6902 82.8164 71.6902H37.1857C36.9884 71.6902 36.8265 71.5283 36.8265 71.33V40.3649Z" fill="#2F4DDB"/>
<path d="M91.2179 78.0874H28.7823C27.7981 78.0874 27 78.8842 27 79.8684C27 82.4466 29.0904 84.5358 31.6663 84.5358H88.3338C90.9096 84.5358 93.0001 82.4465 93.0001 79.8684C93 78.8842 92.2019 78.0874 91.2179 78.0874Z" fill="#2F4DDB"/>
<path d="M47.2918 64.6656C48.205 64.6656 49.0075 64.056 49.2535 63.1736L50.147 59.9562H55.4007L56.3625 63.1527C56.633 64.0505 57.4598 64.6656 58.3974 64.6656C59.0711 64.6656 59.7075 64.3442 60.1088 63.801C60.5078 63.2569 60.6275 62.5553 60.428 61.9102L56.3956 48.9114C55.917 47.3687 54.4894 46.3169 52.8755 46.3169C51.253 46.3169 49.8232 47.3753 49.3489 48.9259L45.3434 62.0332C45.155 62.6507 45.2704 63.3212 45.6537 63.8398C46.0372 64.3596 46.6445 64.6656 47.2918 64.6656ZM51.8338 52.959C52.1331 51.8974 52.4056 50.5096 52.6782 49.4203H52.7316C53.0042 50.5096 53.3323 51.8708 53.6582 52.959L54.8019 56.8528H50.7455L51.8338 52.959Z" fill="#2F4DDB" fill-opacity="0.5"/>
<path d="M62.7332 60.8809C62.7332 63.0044 64.3401 64.964 67.0356 64.964C68.6139 64.964 69.9753 64.3923 70.8461 63.3303H70.9283C71.0702 64.1028 71.744 64.6648 72.5288 64.6648H73.1161C73.5595 64.6648 73.9853 64.483 74.291 64.1616C74.5993 63.8413 74.7612 63.41 74.7432 62.9667C74.7211 62.4835 74.7122 61.9593 74.7122 61.425V56.7967C74.7122 53.6668 73.2957 51.0532 68.8581 51.0532C67.1864 51.0532 65.8011 51.3634 64.7992 51.726C64.1587 51.9576 63.8061 52.6425 63.9945 53.2988C64.101 53.6744 64.3578 53.9903 64.7015 54.1732C65.0474 54.3561 65.451 54.3915 65.8235 54.2696C66.5348 54.0368 67.344 53.884 68.1242 53.884C70.1658 53.884 70.5471 54.8913 70.5471 55.5995V55.7902C65.8365 55.7625 62.7332 57.4228 62.7332 60.8809ZM70.6822 58.3761V59.8192C70.6822 60.0641 70.6557 60.309 70.6 60.5262C70.3297 61.3708 69.485 62.0514 68.4499 62.0514C67.5257 62.0514 66.8163 61.5338 66.8163 60.472C66.8163 58.866 68.5054 58.3492 70.6822 58.3761Z" fill="#2F4DDB" fill-opacity="0.5"/>
</g>
<rect x="120" y="120" width="33.3333" height="33.3333" rx="16.6667" transform="rotate(-180 120 120)" fill="white"/>
<path d="M103.333 120C112.517 120 120 112.517 120 103.333C120 94.15 112.517 86.6667 103.333 86.6667C94.15 86.6667 86.6667 94.15 86.6667 103.333C86.6667 112.517 94.15 120 103.333 120ZM104.583 110C104.583 110.683 104.017 111.25 103.333 111.25C102.65 111.25 102.083 110.683 102.083 110L102.083 101.667C102.083 100.983 102.65 100.417 103.333 100.417C104.017 100.417 104.583 100.983 104.583 101.667L104.583 110ZM101.8 96.0333C101.883 95.8167 102 95.65 102.15 95.4833C102.317 95.3333 102.5 95.2167 102.7 95.1333C102.9 95.05 103.117 95 103.333 95C103.55 95 103.767 95.05 103.967 95.1333C104.167 95.2167 104.35 95.3333 104.517 95.4833C104.667 95.65 104.783 95.8167 104.867 96.0333C104.95 96.2333 105 96.45 105 96.6667C105 96.8833 104.95 97.1 104.867 97.3C104.783 97.5 104.667 97.6833 104.517 97.85C104.35 98 104.167 98.1167 103.967 98.2C103.567 98.3667 103.1 98.3667 102.7 98.2C102.5 98.1167 102.317 98 102.15 97.85C102 97.6833 101.883 97.5 101.8 97.3C101.717 97.1 101.667 96.8833 101.667 96.6667C101.667 96.45 101.717 96.2333 101.8 96.0333Z" fill="#FFC048"/>
<defs>
<clipPath id="clip0_3907_31074">
<rect width="66" height="66" fill="white" transform="translate(27 27)"/>
</clipPath>
</defs>
</svg>
